<?xml version="1.0" encoding="iso-8859-1"?>
<!-- Generator: Adobe Illustrator 28.6.0, SVG Export Plug-In . SVG Version: 9.03 Build 54939)  -->
<svg version="1.1" id="Layer_1" xmlns="http://www.w3.org/2000/svg" xmlns:xlink="http://www.w3.org/1999/xlink" x="0px" y="0px"
	 viewBox="0 0 800 800" style="enable-background:new 0 0 800 800;" xml:space="preserve">
<g>
	<g id="Layer_1_00000000941752838506935140000003479972251432617108_">
		<g id="Layer_1-2">
			<g id="Capa_1">
				<g>
					<path style="fill:#9A834C;" d="M400.1,772c-16.5,0-31.2-9.9-37.3-25.2L299.2,588c-51-19.1-96.8-53.1-129.5-96.3
						c-40.6-53.5-58.8-107.3-58.8-174.7c0-159.4,129.7-289.1,289.1-289.1S689.1,157.6,689.3,317c0,63.7-20.3,124.1-58.8,174.7
						C597.7,535,551.9,569,501,588l-63.6,158.8C431.2,762.1,416.6,772,400.1,772z M400,232.7c-46.5,0-84.4,37.8-84.4,84.4
						s37.8,84.4,84.4,84.4s84.4-37.8,84.4-84.4S446.6,232.7,400,232.7L400,232.7L400,232.7z"/>
					<path style="fill:#FFFFFF;" d="M400,42.9c151.1,0,274.1,122.9,274.3,274.1c0,60.4-19.3,117.7-55.7,165.6
						c-32.7,43.1-78.1,76-129,93.6l-66.1,165.1c-3.8,9.6-13,15.8-23.4,15.8s-19.6-6.2-23.4-15.8l-66.1-165.1
						c-50.8-17.6-96.3-50.4-129-93.6c-36.4-47.9-55.7-98.6-55.7-165.6C125.9,165.9,248.8,42.9,400,42.9 M400,416.4
						c54.8,0,99.4-44.5,99.4-99.4s-44.5-99.4-99.4-99.4s-99.4,44.5-99.4,99.4S345.1,416.4,400,416.4 M400,12.9
						C232.3,12.9,95.9,149.3,95.9,317s5.2,69,15.8,99.8c10.1,29.1,25.1,56.5,46,84c18,23.7,39.5,44.8,64,62.5
						c20.5,14.9,42.7,27.1,66,36.4l61.1,152.7c8.5,21.1,28.6,34.7,51.2,34.7s42.8-13.6,51.2-34.6l61.1-152.8
						c23.3-9.3,45.5-21.5,66-36.4c24.4-17.7,46-38.7,64-62.5c40.4-53.2,61.8-116.7,61.8-183.7C703.9,149.4,567.4,13,399.8,13h0.2
						L400,12.9z M400,386.4c-38.2,0-69.4-31.1-69.4-69.4s31.1-69.4,69.4-69.4s69.4,31.1,69.4,69.4S438.3,386.4,400,386.4L400,386.4z
						"/>
				</g>
			</g>
		</g>
	</g>
</g>
</svg>
