<?xml version="1.0" encoding="UTF-8"?>
<svg xmlns="http://www.w3.org/2000/svg" version="1.1" viewBox="0 0 800 800">
  <defs>
    <style>
      .cls-1 {
        fill: #bf3831;
      }

      .cls-2 {
        fill: #fff;
      }
    </style>
  </defs>
  <!-- Generator: Adobe Illustrator 28.6.0, SVG Export Plug-In . SVG Version: 1.2.0 Build 709)  -->
  <g>
    <g id="Layer_1">
      <g id="Capa_1">
        <g>
          <path class="cls-1" d="M400.1,772c-16.5,0-31.2-9.9-37.3-25.2l-63.6-158.8c-51-19.1-96.8-53.1-129.5-96.3-40.6-53.5-58.8-107.3-58.8-174.7C110.9,157.6,240.6,27.9,400,27.9s289.1,129.7,289.3,289.1c0,63.7-20.3,124.1-58.8,174.7-32.8,43.3-78.6,77.3-129.5,96.3l-63.6,158.8c-6.2,15.3-20.8,25.2-37.3,25.2ZM400,232.7c-46.5,0-84.4,37.8-84.4,84.4s37.8,84.4,84.4,84.4,84.4-37.8,84.4-84.4-37.8-84.4-84.4-84.4Z"/>
          <path class="cls-2" d="M400,42.9c151.1,0,274.1,122.9,274.3,274.1,0,60.4-19.3,117.7-55.7,165.6-32.7,43.1-78.1,76-129,93.6l-66.1,165.1c-3.8,9.6-13,15.8-23.4,15.8s-19.6-6.2-23.4-15.8l-66.1-165.1c-50.8-17.6-96.3-50.4-129-93.6-36.4-47.9-55.7-98.6-55.7-165.6,0-151.1,122.9-274.1,274.1-274.1M400,416.4c54.8,0,99.4-44.5,99.4-99.4s-44.5-99.4-99.4-99.4-99.4,44.5-99.4,99.4,44.5,99.4,99.4,99.4M400,12.9c-167.7,0-304.1,136.4-304.1,304.1s5.2,69,15.8,99.8c10.1,29.1,25.1,56.5,46,84,18,23.7,39.5,44.8,64,62.5,20.5,14.9,42.7,27.1,66,36.4l61.1,152.7c8.5,21.1,28.6,34.7,51.2,34.7s42.8-13.6,51.2-34.6l61.1-152.8c23.3-9.3,45.5-21.5,66-36.4,24.4-17.7,46-38.7,64-62.5,40.4-53.2,61.8-116.7,61.8-183.7-.2-167.7-136.7-304.1-304.3-304.1h0ZM400,386.4c-38.2,0-69.4-31.1-69.4-69.4s31.1-69.4,69.4-69.4,69.4,31.1,69.4,69.4-31.1,69.4-69.4,69.4h0Z"/>
        </g>
      </g>
    </g>
  </g>
</svg>